<?xml version="1.0" encoding="utf-8"?>

<!DOCTYPE svg PUBLIC "-//W3C//DTD SVG 1.1//EN" "http://www.w3.org/Graphics/SVG/1.1/DTD/svg11.dtd">
<!-- Uploaded to: SVG Repo, www.svgrepo.com, Generator: SVG Repo Mixer Tools -->
<svg height="800px" width="800px" version="1.1" id="_x32_" xmlns="http://www.w3.org/2000/svg" xmlns:xlink="http://www.w3.org/1999/xlink" 
	 viewBox="0 0 512 512"  xml:space="preserve">
<style type="text/css">
	.st0{fill:#000000;}
</style>
<g>
	<path class="st0" d="M422.734,287.497v-47.412c0-92.322-74.822-167.144-167.157-167.144c-92.308,0-167.13,74.822-167.13,167.144
		v47.412c0,92.31,74.822,167.13,167.13,167.13C347.912,454.627,422.734,379.807,422.734,287.497z M255.577,424.241
		c-75.403,0-136.73-61.341-136.73-136.744v-47.412c0-5.224,0.344-10.384,0.925-15.45c79.902-6.073,135.012-22.079,172.026-38.786
		c23.149,14.776,55.295,30.359,100.034,43.919c0.266,3.412,0.503,6.826,0.503,10.318v47.412
		C392.334,362.9,331.007,424.241,255.577,424.241z"/>
	<path class="st0" d="M486.39,182.079C459.642,78.816,366.01,2.302,254.466,2.275C142.552,2.302,48.682,79.345,22.304,183.151
		C9.207,188.772,0,201.776,0,216.936v91.913c0,20.292,16.457,36.761,36.749,36.761c20.293,0,36.776-16.469,36.776-36.761v-91.913
		c0-14.301-8.282-26.549-20.214-32.635c9.948-34.513,28.388-65.455,53.152-90.232c37.966-37.966,90.246-61.42,148.002-61.42
		c57.782,0,110.062,23.455,148.028,61.42c25.108,25.121,43.68,56.592,53.496,91.688c-10.449,6.468-17.514,17.964-17.514,31.179
		v91.913c0,14.565,8.545,27.052,20.847,32.992c-4.894,18.44-11.931,35.93-20.292,51.314c-8.202,15.094-17.646,28.124-27.409,38.098
		c-7.302-5.502-16.298-8.876-26.14-8.876c-24.103,0-43.655,19.552-43.655,43.668c0,24.115,19.552,43.681,43.655,43.681
		c24.128,0,43.68-19.566,43.68-43.681c0-5.371-1.085-10.464-2.884-15.227l2.248-2.09c24.208-24.724,44.422-62.213,54.925-104.108
		c16.325-3.744,28.547-18.309,28.547-35.77v-91.913C512,200.559,501.205,186.828,486.39,182.079z"/>
	<path class="st0" d="M189.725,250.245c-11.536,0-20.875,9.352-20.875,20.902c0,11.535,9.339,20.875,20.875,20.875
		c11.536,0,20.902-9.34,20.902-20.875C210.627,259.598,201.261,250.245,189.725,250.245z"/>
	<path class="st0" d="M319.232,250.245c-11.534,0-20.9,9.352-20.9,20.902c0,11.535,9.366,20.875,20.9,20.875
		c11.536,0,20.876-9.34,20.876-20.875C340.108,259.598,330.768,250.245,319.232,250.245z"/>
</g>
</svg>